<svg viewBox="0 0 640 410" role="img" aria-hidden="true" fill="currentColor" font-family="system-ui, 'Segoe UI', 'Microsoft YaHei', sans-serif">
<defs><marker id="tip" viewBox="0 0 10 10" refX="9" refY="5" markerWidth="7" markerHeight="7" orient="auto-start-reverse"><path d="M 0 0 L 10 5 L 0 10 z" fill="currentColor"/></marker></defs>
<line x1="320" y1="30" x2="320" y2="348" stroke="currentColor" stroke-width="1.5" stroke-dasharray="4 4"/>
<text x="160" y="24" text-anchor="middle" font-size="15">传值：函数里的 a 是副本</text>
<text x="480" y="24" text-anchor="middle" font-size="15">传地址：函数里的 pa 记着 x 的地址</text>
<text x="74" y="74" text-anchor="start" font-size="15">x</text>
<text x="108" y="74" text-anchor="start" font-size="13">内容 3</text>
<text x="248" y="74" text-anchor="end" font-size="13">0x7ffd38</text>
<text x="394" y="74" text-anchor="start" font-size="15">x</text>
<text x="428" y="74" text-anchor="start" font-size="13">内容 3</text>
<text x="568" y="74" text-anchor="end" font-size="13">0x7ffd38</text>
<g fill="none">
<rect x="60" y="50" width="200" height="38" rx="6" stroke="currentColor" stroke-width="1.5"/>
<rect x="380" y="50" width="200" height="38" rx="6" stroke="currentColor" stroke-width="1.5"/>
</g>
<text x="74" y="112" text-anchor="start" font-size="15">y</text>
<text x="108" y="112" text-anchor="start" font-size="13">内容 8</text>
<text x="248" y="112" text-anchor="end" font-size="13">0x7ffd3c</text>
<text x="394" y="112" text-anchor="start" font-size="15">y</text>
<text x="428" y="112" text-anchor="start" font-size="13">内容 8</text>
<text x="568" y="112" text-anchor="end" font-size="13">0x7ffd3c</text>
<g fill="none">
<rect x="60" y="88" width="200" height="38" rx="6" stroke="currentColor" stroke-width="1.5"/>
<rect x="380" y="88" width="200" height="38" rx="6" stroke="currentColor" stroke-width="1.5"/>
</g>
<text x="160" y="146" text-anchor="middle" font-size="13">main 里这两个变量，调用中一直没动</text>
<text x="480" y="146" text-anchor="middle" font-size="13">main 里这两个变量，调用中一直没动</text>
<line x1="60" y1="136" x2="60" y2="214" stroke="currentColor" stroke-width="1.5" stroke-dasharray="4 4"/>
<line x1="260" y1="136" x2="260" y2="214" stroke="currentColor" stroke-width="1.5" stroke-dasharray="4 4"/>
<line x1="380" y1="136" x2="380" y2="214" stroke="currentColor" stroke-width="1.5" stroke-dasharray="4 4"/>
<line x1="580" y1="136" x2="580" y2="214" stroke="currentColor" stroke-width="1.5" stroke-dasharray="4 4"/>
<g fill="none">
<rect x="60" y="214" width="200" height="38" rx="6" stroke="currentColor" stroke-width="1.5"/>
<rect x="60" y="252" width="200" height="38" rx="6" stroke="currentColor" stroke-width="1.5"/>
</g>
<text x="74" y="238" text-anchor="start" font-size="15">a</text>
<g fill="none">
<rect x="380" y="214" width="200" height="38" rx="6" stroke="currentColor" stroke-width="1.5"/>
<rect x="380" y="252" width="200" height="38" rx="6" stroke="currentColor" stroke-width="1.5"/>
</g>
<text x="394" y="238" text-anchor="start" font-size="15">pa</text>
<text x="96" y="238" text-anchor="start" font-size="13">副本 3</text>
<text x="96" y="276" text-anchor="start" font-size="13">副本 8</text>
<text x="424" y="238" text-anchor="start" font-size="13">内容 0x7ffd38</text>
<text x="424" y="276" text-anchor="start" font-size="13">内容 0x7ffd3c</text>
<line x1="60" y1="208" x2="60" y2="214" stroke="currentColor" stroke-width="1.5" marker-end="url(#tip)"/>
<line x1="380" y1="208" x2="380" y2="214" stroke="currentColor" stroke-width="1.5" marker-end="url(#tip)"/>
<text x="160" y="314" text-anchor="middle" font-size="13">函数里改 a、b，改的是这两格，main 看不见</text>
<text x="480" y="314" text-anchor="middle" font-size="13">函数里写 *pa，改的是 main 里那一格</text>
<text x="160" y="366" text-anchor="middle" font-size="13">左：副本里装的是值</text>
<text x="480" y="366" text-anchor="middle" font-size="13">右：副本里装的是地址</text>
<text x="320" y="392" text-anchor="middle" font-size="13">两次调用传出去的都是副本；副本里装地址的那份，顺着地址能回到原件</text>
</svg>